<?xml version="1.0" encoding="UTF-8"?>
<svg width="1200pt" height="1200pt" version="1.1" viewBox="0 0 1200 1200" xmlns="http://www.w3.org/2000/svg">
    <defs>
        <linearGradient id="a2zHeroGrad" gradientUnits="userSpaceOnUse">
            <stop offset="0%"   stop-color="#60A5FA" /> <!-- blue-400 -->
            <stop offset="45%"  stop-color="#2563EB" /> <!-- blue-600 -->
            <stop offset="100%" stop-color="#0F172A" /> <!-- slate-900 (deep navy-black) -->
        </linearGradient>

        <linearGradient id="icons-gradient" gradientUnits="userSpaceOnUse">
            <stop offset="0%"   stop-color="#93C5FD" /> <!-- blue-300 -->
            <stop offset="100%" stop-color="#1E293B" /> <!-- slate-800 -->
        </linearGradient>
</defs>
 <path stroke="url(#icons-gradient)" stroke-width="6" d="m1083.5 521.72c-0.046875-0.14062-0.09375-0.23438-0.14062-0.375-0.09375-0.32812-0.23438-0.65625-0.42188-0.98438-0.046875-0.14062-0.14062-0.23438-0.1875-0.375-0.23438-0.375-0.51562-0.75-0.84375-1.0781 0 0 0-0.046875-0.046875-0.046875-0.32812-0.32812-0.70312-0.60938-1.125-0.89062-0.046875-0.046875-0.09375-0.09375-0.14062-0.09375l-133.03-76.828c-1.875-1.0781-4.1719-1.0781-6.0938 0l-129.98 75.047-72.422-42.75v-149.16c0-0.51562-0.09375-0.98438-0.1875-1.4531-0.046875-0.14062-0.09375-0.23438-0.14062-0.375-0.09375-0.32812-0.23438-0.65625-0.42188-0.98438-0.046875-0.14062-0.14062-0.23438-0.1875-0.375-0.23438-0.375-0.51562-0.75-0.84375-1.0781 0 0 0-0.046875-0.046875-0.046875-0.32812-0.32812-0.70312-0.60938-1.125-0.89062-0.046875-0.046875-0.09375-0.09375-0.14062-0.09375l-133.03-76.828c-1.875-1.0781-4.1719-1.0781-6.0938 0l-133.08 76.828c-0.046875 0.046875-0.09375 0.09375-0.14062 0.09375-0.42188 0.23438-0.79688 0.51562-1.125 0.89062 0 0 0 0.046875-0.046875 0.046875-0.32812 0.32812-0.60938 0.70312-0.84375 1.0781-0.09375 0.09375-0.14062 0.23438-0.1875 0.375-0.1875 0.32812-0.28125 0.65625-0.42188 0.98438-0.046875 0.14062-0.09375 0.23438-0.14062 0.375-0.09375 0.46875-0.1875 0.9375-0.1875 1.4531v150.14l-72.328 41.766-130.03-75.047c-1.875-1.0781-4.1719-1.0781-6.0938 0l-133.08 76.828c-0.046875 0.046875-0.09375 0.09375-0.14062 0.09375-0.42188 0.23438-0.79688 0.51562-1.125 0.89062 0 0 0 0.046875-0.046875 0.046875-0.32812 0.32812-0.60938 0.70312-0.84375 1.0781-0.09375 0.09375-0.14062 0.23438-0.1875 0.375-0.1875 0.32812-0.28125 0.65625-0.42188 0.98438-0.046875 0.14062-0.09375 0.23438-0.14062 0.375-0.09375 0.46875-0.1875 0.9375-0.1875 1.4531v153.66c0 2.1562 1.1719 4.1719 3.0469 5.25l133.08 76.828c0.09375 0.046876 0.14062 0.046876 0.23438 0.09375 0.32812 0.1875 0.65625 0.32813 1.0312 0.42188 0.14062 0.046874 0.23438 0.09375 0.375 0.09375 0.46875 0.09375 0.9375 0.1875 1.4062 0.1875 0.51562 0 0.98438-0.09375 1.4062-0.1875 0.14062-0.046876 0.23438-0.09375 0.375-0.09375 0.375-0.09375 0.70312-0.23438 1.0312-0.42188 0.09375-0.046874 0.14062-0.046874 0.23438-0.09375l131.02-75.609 71.344 42.328v150.19c0 2.1562 1.1719 4.1719 3.0469 5.25l133.08 76.828c0.09375 0.046875 0.14062 0.046875 0.23438 0.09375 0.32812 0.1875 0.65625 0.32812 1.0312 0.42188 0.14062 0.046875 0.23438 0.09375 0.375 0.09375 0.46875 0.09375 0.9375 0.1875 1.4062 0.1875 0.51562 0 0.98438-0.09375 1.4062-0.1875 0.14062-0.046875 0.23438-0.09375 0.375-0.09375 0.375-0.09375 0.70312-0.23438 1.0312-0.42188 0.09375-0.046875 0.14062-0.046875 0.23438-0.09375l133.03-76.828c1.875-1.0781 3.0469-3.0938 3.0469-5.25v-150.14l72.375-41.766 130.03 75.047c0.09375 0.046874 0.14062 0.046874 0.23438 0.09375 0.32812 0.1875 0.65625 0.32812 1.0312 0.42187 0.14062 0.046876 0.23438 0.09375 0.375 0.09375 0.46875 0.09375 0.9375 0.1875 1.4062 0.1875 0.51562 0 0.98438-0.09375 1.4062-0.1875 0.14062-0.046874 0.23438-0.09375 0.375-0.09375 0.375-0.09375 0.70312-0.23437 1.0312-0.42187 0.09375-0.046876 0.14062-0.046876 0.23438-0.09375l133.03-76.828c1.875-1.0781 3.0469-3.0938 3.0469-5.25v-153.66c0-0.51562-0.09375-0.98438-0.1875-1.4531zm-138.94-68.344 120.89 69.797-120.89 69.844-120.89-69.844zm-273.05-19.922c-2.8594-1.6875-6.6094-0.75-8.2969 2.1562s-0.75 6.6094 2.1562 8.2969l56.578 33.422-115.88 66.891v-139.64l120.89-69.844v131.48zm-71.531-179.02 120.89 69.797-120.89 69.844-120.94-69.844zm-126.98 80.297 120.94 69.844v139.64l-114.89-66.328 62.297-35.953c2.9062-1.6875 3.8906-5.3906 2.2031-8.2969s-5.3906-3.8906-8.2969-2.2031l-62.25 35.953zm-217.55 118.64 120.89 69.797-120.89 69.844-120.94-69.844zm-127.03 80.297 120.94 69.844v139.6l-120.94-69.797zm133.08 209.44v-139.6l120.89-69.844v131.29l-53.953-32.016c-2.8594-1.7344-6.6094-0.75-8.2969 2.1094-1.7344 2.9062-0.75 6.6094 2.1094 8.2969l55.219 32.766-115.97 66.938zm133.08-70.922v-145.5l72.328-41.766 130.08 75.094c0.09375 0.046875 0.14062 0.046875 0.23438 0.09375 0.32812 0.1875 0.65625 0.32812 1.0312 0.42188 0.14062 0.046875 0.23438 0.09375 0.375 0.09375 0.46875 0.09375 0.9375 0.1875 1.4062 0.1875 0.51562 0 0.98438-0.09375 1.4062-0.1875 0.14062-0.046875 0.23438-0.09375 0.375-0.09375 0.375-0.09375 0.70312-0.23438 1.0312-0.42188 0.09375-0.046875 0.14062-0.046875 0.23438-0.09375l130.87-75.562 71.531 42.234v146.68l-72.375 41.766-130.03-75.094c-1.875-1.0781-4.1719-1.0781-6.0938 0l-130.03 75.094zm205.4 119.77-120.94-69.844 120.94-69.844 120.89 69.844zm-126.98-59.297 120.94 69.844v139.6l-120.94-69.797zm133.08 209.39v-139.6l120.89-69.844v139.64zm273.47-304.5c-1.6875-2.9062-5.3906-3.8906-8.2969-2.2031l-53.672 30.984v-132.61l120.89 69.844v139.6l-114.84-66.281 53.672-30.984c2.9062-1.6875 3.8906-5.3906 2.2031-8.2969zm71.109 105.56v-139.6l120.89-69.844v139.64z"/>
</svg>
