<?xml version="1.0" encoding="UTF-8"?>
<svg width="1200pt" height="1200pt" version="1.1" viewBox="0 0 1200 1200" xmlns="http://www.w3.org/2000/svg">
 <defs>
    <linearGradient id="icons-gradient" gradientUnits="userSpaceOnUse">
        <stop offset="0%"   stop-color="#93C5FD" /> <!-- blue-300 -->
        <stop offset="100%" stop-color="#1E293B" /> <!-- slate-800 -->
    </linearGradient>
</defs>
 
 <path stroke="url(#icons-gradient)" stroke-width="8" d="m1047.3 375.62h122.04c6.625 0 12-5.375 12-12v-122.04c0-6.625-5.375-12-12-12h-122.04c-6.625 0-12 5.375-12 12v49.031h-57.07c-6.625 0-12 5.375-12 12v189.79h-115.25v-79.535c0-6.625-5.375-12-12-12h-131.43v-115.22h189.79c6.625 0 12-5.375 12-12v-57.07h49.031c6.625 0 12-5.375 12-12v-122.04c0-6.625-5.375-12-12-12h-122.06c-6.625 0-12 5.375-12 12v122.04c0 6.625 5.375 12 12 12h49.031v45.07h-189.79c-6.625 0-12 5.375-12 12v127.22h-167.21v-127.22c0-6.625-5.375-12-12-12h-189.79v-45.07h49.031c6.625 0 12-5.375 12-12v-122.04c0-6.625-5.375-12-12-12h-122.06c-6.625 0-12 5.375-12 12v122.04c0 6.625 5.375 12 12 12h49.031v57.07c0 6.625 5.375 12 12 12h189.79v115.22h-131.43c-6.625 0-12 5.375-12 12v79.535h-115.25v-189.79c0-6.625-5.375-12-12-12h-57.047v-49.031c0-6.625-5.375-12-12-12h-122.04c-6.625 0-12 5.375-12 12v122.04c0 6.625 5.375 12 12 12h122.06c6.625 0 12-5.375 12-12v-49.008h45.047v189.79c0 6.625 5.375 12 12 12h127.25v167.21h-127.25c-6.625 0-12 5.375-12 12v189.79h-45.047v-49.031c0-6.625-5.375-12-12-12l-122.06-0.003906c-6.625 0-12 5.375-12 12v122.06c0 6.625 5.375 12 12 12h122.06c6.625 0 12-5.375 12-12v-49.031h57.047c6.625 0 12-5.375 12-12v-189.79h115.25v79.535c0 6.625 5.375 12 12 12h131.43v115.25h-189.79c-6.625 0-12 5.375-12 12v57.047h-49.031c-6.625 0-12 5.375-12 12v122.06c0 6.625 5.375 12 12 12h122.06c6.625 0 12-5.375 12-12v-122.06c0-6.625-5.375-12-12-12h-49.031l0.003907-45.047h189.79c6.625 0 12-5.375 12-12v-127.25h167.21v127.25c0 6.625 5.375 12 12 12h189.79v45.047h-49.031c-6.625 0-12 5.375-12 12v122.06c0 6.625 5.375 12 12 12h122.06c6.625 0 12-5.375 12-12v-122.06c0-6.625-5.375-12-12-12h-49.031l-0.003906-57.047c0-6.625-5.375-12-12-12h-189.79v-115.25h131.43c6.625 0 12-5.375 12-12v-79.535h115.25v189.79c0 6.625 5.375 12 12 12h57.07v49.031c0 6.625 5.375 12 12 12h122.04c6.625 0 12-5.375 12-12v-122.06c0-6.625-5.375-12-12-12h-122.04c-6.625 0-12 5.375-12 12v49.031h-45.07v-189.79c0-6.625-5.375-12-12-12h-127.25v-167.21h127.25c6.625 0 12-5.375 12-12v-189.79h45.07v49.008c-0.019531 6.6211 5.332 12 11.98 12zm-198.96-281.11h98.062v98.039h-98.062zm-594.82 0h98.062v98.039h-98.062zm-112.87 257.11h-98.062v-98.039h98.062zm0 594.82h-98.062v-98.062h98.062zm210.94 159.07h-98.062v-98.062h98.062zm594.82 0h-98.062v-98.062h98.062zm112.89-257.14h98.039v98.062h-98.039zm-232.32-73.223h-454.03v-350.3h454.03zm232.32-521.59h98.039v98.039h-98.039z"/>
</svg>
