<?xml version="1.0" encoding="UTF-8"?>
<svg width="512pt" height="512pt" version="1.1" viewBox="0 0 512 512" xmlns="http://www.w3.org/2000/svg">
  <g transform="translate(77,77) scale(0.7)">
    <path d="m279.46 232.54c18.461 18.461 18.461 48.641 0 67.098l-102.18 102.18c-18.461 18.461-48.641 18.461-67.098 0-18.457-18.461-18.461-48.641 0-67.098l31.781-31.781-30.18-30.18-31.781 31.781c-35.102 35.102-35.102 92.262 0 127.46 17.602 17.602 40.641 26.34 63.684 26.34s46.18-8.7383 63.684-26.34l102.18-102.18c35.102-35.102 35.102-92.262 0-127.46l-30.18 30.18z" fill="#fff"/>
    <path d="m304.54 80-102.18 102.18c-35.102 35.102-35.102 92.262 0 127.46l30.18-30.18c-18.461-18.461-18.461-48.641 0-67.098l102.18-102.18c18.461-18.461 48.641-18.559 67.098 0 18.457 18.559 18.461 48.641 0 67.098l-31.781 31.781 30.18 30.18 31.781-31.781c35.102-35.102 35.102-92.262 0-127.46-35.102-35.102-92.262-35.199-127.46 0z" fill="#fff"/>
  </g>
</svg>
