<?xml version="1.0" encoding="UTF-8"?>
<svg width="512pt" height="512pt" version="1.1" viewBox="0 0 512 512" xmlns="http://www.w3.org/2000/svg">
 <defs>
  <clipPath id="a">
   <path d="m94.781 143h322.44v226h-322.44z"/>
  </clipPath>
 </defs>
 <g clip-path="url(#a)">
  <path d="m293.34 143.97c7.8438 2.6172 12.34 10.676 10.688 18.578l-0.49219 1.8164-64.488 193.46c-2.8164 8.4492-11.945 13.016-20.391 10.199-7.8438-2.6172-12.344-10.676-10.691-18.574l0.49219-1.8203 64.488-193.46c2.8164-8.4492 11.945-13.012 20.395-10.199zm-105.05 53.988c4.9297 6.5742 4.0781 15.691-1.6836 21.258l-1.543 1.3125-47.285 35.469 47.285 35.469c6.5781 4.9297 8.3125 13.922 4.3398 20.879l-1.1133 1.6914c-4.9336 6.5742-13.922 8.3125-20.879 4.3359l-1.6914-1.1133-64.488-48.363c-8.0273-6.0195-8.5625-17.656-1.6055-24.422l1.6055-1.375 64.488-48.363c7.1211-5.3438 17.227-3.8984 22.57 3.2227zm156.3-4.3359 1.6914 1.1133 64.488 48.363c8.0273 6.0195 8.5625 17.656 1.6055 24.426l-1.6055 1.3711-64.488 48.363c-7.1211 5.3438-17.227 3.9023-22.57-3.2227-4.9297-6.5742-4.0781-15.691 1.6836-21.258l1.543-1.3125 47.285-35.469-47.285-35.469c-6.5742-4.9297-8.3125-13.922-4.3398-20.875l1.1133-1.6953c4.9336-6.5742 13.922-8.3086 20.879-4.3359z" fill="#fff"/>
 </g>
</svg>
