<?xml version="1.0" encoding="UTF-8"?>
<svg width="512pt" height="512pt" version="1.1" viewBox="0 0 512 512" xmlns="http://www.w3.org/2000/svg">
 <path  stroke="#fff" stroke-width="6" fill="#fff" d="m367.21 224.77c-0.058593-15.027-5.2422-29.586-14.695-41.27 3.2109-13.355 2.207-27.375-2.8672-40.141-1-2.457-3.0469-4.3359-5.582-5.1211-3.5859-1.2305-17.152-3.5312-44.801 14.387l0.003906 0.003906c-11.895-3.1406-24.16-4.6211-36.457-4.4062-12.312-0.21875-24.598 1.2617-36.504 4.4062-28.363-18.328-43.109-15.359-46.078-14.488l-0.003906-0.003906c-2.5469 0.82031-4.5938 2.7383-5.5781 5.2227-5.0898 12.723-6.125 26.707-2.9727 40.039-9.7617 11.621-14.965 26.398-14.641 41.574 0 56.629 32.41 73.727 62.105 79.77-1.5234 3.7266-2.5742 7.6328-3.125 11.621-0.050781 0.42578-0.050781 0.85547 0 1.2812v15.668c-27.035 2.2539-32.82-13.566-33.383-15.359-0.12891-0.41797-0.28516-0.82812-0.46094-1.2305-5.2188-10.652-14.41-18.832-25.598-22.785-4.6953-1.5664-9.7734 0.96484-11.34 5.6602-1.5703 4.6914 0.96094 9.7695 5.6562 11.34 6.1992 2.2383 11.367 6.6641 14.539 12.441 3.5859 11.621 18.227 30.004 50.484 27.957v14.746-0.003906c0 4.9492 4.0117 8.9609 8.9609 8.9609 4.9492 0 8.9609-4.0117 8.9609-8.9609v-47.77c0.67969-5.2148 2.9492-10.094 6.5-13.977 2.543-2.3789 3.4648-6.0195 2.3633-9.3203-1.1016-3.3008-4.0234-5.6602-7.4844-6.0391-31.23-3.6367-60.109-13.926-60.109-64.359h0.003907c-0.42188-12.305 4.332-24.227 13.105-32.871 2.3789-2.5586 3.1641-6.2109 2.0469-9.5195-3.0156-8.7656-3.2109-18.254-0.5625-27.137 10.996 2.4805 21.32 7.3203 30.262 14.18 2.3242 1.543 5.2266 1.9375 7.8828 1.0781 11.375-3.4648 23.234-5.0703 35.125-4.7617 11.867-0.3125 23.711 1.2969 35.07 4.7617 2.6523 0.86719 5.5586 0.47266 7.8867-1.0781 8.6094-6.5977 18.469-11.387 28.977-14.078 2.6094 8.9805 2.3789 18.547-0.66406 27.391-1.0195 3.0039-0.35547 6.3242 1.7383 8.7031 8.4766 9.0508 13.277 20.934 13.469 33.332 0 50.328-30.363 60.773-60.109 64.359-3.6445 0.40625-6.668 3.0039-7.6211 6.5469-0.94922 3.5391 0.36719 7.3047 3.3203 9.4805 3.1758 2.4062 6.8594 9.1641 6.8594 20.48v40.551-0.003906c0 4.9492 4.0117 8.9609 8.9609 8.9609 4.9492 0 8.9609-4.0117 8.9609-8.9609v-40.551c0.09375-7.1289-1.2109-14.207-3.8398-20.836 24.062-5.1211 61.234-20.941 61.234-79.871z"/>
</svg>
